<svg width="94" height="121" viewBox="0 0 94 121" fill="none" xmlns="http://www.w3.org/2000/svg">
    <path d="M8.50574 87.03C18.9532 101.804 13.2376 111.974 17.1562 113.243C24.9933 114.774 43.0631 117.5 52.6452 116.156C64.6228 114.475 58.8558 114.251 67.3954 106.074C75.9349 97.8962 83.5527 84.2322 82 83C80.4473 81.7678 60.8728 79.5824 57.5 83C47.4758 93.1571 67.3954 55.1035 65.9536 49.6144C64.5119 44.1253 74.2714 28.8699 65.9536 26.5174C57.6359 24.1649 38.8087 30.4218 36.497 33.5176C21.3283 53.8307 21.5923 46.3658 19.9287 53.7593C18.265 61.1528 21.5 21 18.5 21C15.8807 21 11.4999 37 5.986 46C3.31207 50.3646 -6.01181 66.5001 8.50574 87.03Z"
          fill="url(#paint0_linear_103_89)"/>
    <path d="M0.637589 84.2167C-2.47599 106.575 6.56821 115.332 11.4795 116.916C21.3021 118.826 43.9495 122.226 55.959 120.549C70.9709 118.453 63.743 118.173 74.4459 107.972C85.1488 97.7714 95.7128 44.2512 93.7668 42.7141C91.8208 41.177 70.5539 75.9721 64.577 75.2734C58.6 74.5747 74.4459 44.3909 72.6389 37.5437C70.8319 30.6965 58.461 33.0721 48.0361 30.1375C37.6112 27.203 45.5341 3.7268 42.1981 0.23331C38.8622 -3.26018 17.0395 33.4913 14.9543 42.7141C12.8692 51.9369 20.0973 79.3258 18.9853 82.4001C17.8733 85.4744 7.86539 62.8366 6.7534 56.5483C5.64141 50.26 4.52956 56.2688 0.637589 84.2167Z"
          fill="url(#paint1_linear_103_89)"/>
    <defs>
        <linearGradient id="paint0_linear_103_89" x1="45.5" y1="19.5176" x2="45.5" y2="116.518"
                        gradientUnits="userSpaceOnUse">
            <stop stop-color="#FFD45A"/>
            <stop offset="0.298077" stop-color="#FFA95A"/>
            <stop offset="0.596154" stop-color="#FF8B5A"/>
            <stop offset="1" stop-color="#FF5A5A"/>
        </linearGradient>
        <linearGradient id="paint1_linear_103_89" x1="47" y1="0" x2="47" y2="121" gradientUnits="userSpaceOnUse">
            <stop stop-color="#FFD45A"/>
            <stop offset="0.298077" stop-color="#FFA95A"/>
            <stop offset="0.596154" stop-color="#FF8B5A"/>
            <stop offset="1" stop-color="#FF5A5A"/>
        </linearGradient>
    </defs>
</svg>
